<svg width="95" height="26" viewBox="0 0 95 26" fill="none" xmlns="http://www.w3.org/2000/svg">
<path d="M6.82 20.212H18.736V25H0.628V1.24H6.82V20.212ZM31.4468 0.879999C33.8468 0.879999 35.9108 1.372 37.6388 2.356C39.3908 3.316 40.7348 4.708 41.6708 6.532C42.6068 8.356 43.0748 10.552 43.0748 13.12C43.0748 15.688 42.6068 17.884 41.6708 19.708C40.7348 21.532 39.3908 22.936 37.6388 23.92C35.9108 24.88 33.8468 25.36 31.4468 25.36C29.0468 25.36 26.9708 24.88 25.2188 23.92C23.4668 22.936 22.1228 21.532 21.1868 19.708C20.2508 17.884 19.7828 15.688 19.7828 13.12C19.7828 10.552 20.2508 8.356 21.1868 6.532C22.1228 4.708 23.4668 3.316 25.2188 2.356C26.9708 1.372 29.0468 0.879999 31.4468 0.879999ZM31.4468 5.74C30.2948 5.74 29.3228 6.016 28.5308 6.568C27.7388 7.12 27.1388 7.948 26.7308 9.052C26.3228 10.132 26.1188 11.488 26.1188 13.12C26.1188 14.728 26.3228 16.084 26.7308 17.188C27.1388 18.292 27.7388 19.12 28.5308 19.672C29.3228 20.224 30.2948 20.5 31.4468 20.5C32.5988 20.5 33.5588 20.224 34.3268 19.672C35.1188 19.12 35.7188 18.292 36.1268 17.188C36.5348 16.084 36.7388 14.728 36.7388 13.12C36.7388 11.488 36.5348 10.132 36.1268 9.052C35.7188 7.948 35.1188 7.12 34.3268 6.568C33.5588 6.016 32.5988 5.74 31.4468 5.74ZM56.4418 25.36C54.3298 25.36 52.4458 24.892 50.7898 23.956C49.1578 23.02 47.8858 21.64 46.9738 19.816C46.0618 17.992 45.6058 15.772 45.6058 13.156C45.6058 10.588 46.0858 8.392 47.0458 6.568C48.0058 4.744 49.3738 3.34 51.1498 2.356C52.9498 1.372 55.0618 0.879999 57.4858 0.879999C60.1738 0.879999 62.3458 1.372 64.0018 2.356C65.6578 3.316 66.9418 4.852 67.8538 6.964L62.1298 9.232C61.8178 8.008 61.2658 7.12 60.4738 6.568C59.6818 6.016 58.6978 5.74 57.5218 5.74C56.3458 5.74 55.3378 6.028 54.4978 6.604C53.6578 7.156 53.0218 7.984 52.5898 9.088C52.1578 10.168 51.9418 11.512 51.9418 13.12C51.9418 14.8 52.1578 16.204 52.5898 17.332C53.0458 18.46 53.7058 19.3 54.5698 19.852C55.4578 20.38 56.5498 20.644 57.8458 20.644C58.5418 20.644 59.1778 20.56 59.7538 20.392C60.3298 20.224 60.8338 19.984 61.2658 19.672C61.6978 19.336 62.0338 18.928 62.2738 18.448C62.5138 17.944 62.6338 17.356 62.6338 16.684V16.324H57.1978V12.184H67.8898V25H63.6778L63.2098 19.42L64.2178 20.284C63.7138 21.916 62.8018 23.176 61.4818 24.064C60.1858 24.928 58.5058 25.36 56.4418 25.36ZM82.5654 0.879999C84.9654 0.879999 87.0294 1.372 88.7574 2.356C90.5094 3.316 91.8534 4.708 92.7894 6.532C93.7254 8.356 94.1934 10.552 94.1934 13.12C94.1934 15.688 93.7254 17.884 92.7894 19.708C91.8534 21.532 90.5094 22.936 88.7574 23.92C87.0294 24.88 84.9654 25.36 82.5654 25.36C80.1654 25.36 78.0894 24.88 76.3374 23.92C74.5854 22.936 73.2414 21.532 72.3054 19.708C71.3694 17.884 70.9014 15.688 70.9014 13.12C70.9014 10.552 71.3694 8.356 72.3054 6.532C73.2414 4.708 74.5854 3.316 76.3374 2.356C78.0894 1.372 80.1654 0.879999 82.5654 0.879999ZM82.5654 5.74C81.4134 5.74 80.4414 6.016 79.6494 6.568C78.8574 7.12 78.2574 7.948 77.8494 9.052C77.4414 10.132 77.2374 11.488 77.2374 13.12C77.2374 14.728 77.4414 16.084 77.8494 17.188C78.2574 18.292 78.8574 19.12 79.6494 19.672C80.4414 20.224 81.4134 20.5 82.5654 20.5C83.7174 20.5 84.6774 20.224 85.4454 19.672C86.2374 19.12 86.8374 18.292 87.2454 17.188C87.6534 16.084 87.8574 14.728 87.8574 13.12C87.8574 11.488 87.6534 10.132 87.2454 9.052C86.8374 7.948 86.2374 7.12 85.4454 6.568C84.6774 6.016 83.7174 5.74 82.5654 5.74Z" fill="url(#paint0_radial_36_124)"/>
<defs>
<radialGradient id="paint0_radial_36_124" cx="0" cy="0" r="1" gradientUnits="userSpaceOnUse" gradientTransform="translate(-2 13) scale(98 228.667)">
<stop stop-color="#00FFFF"/>
<stop offset="1" stop-color="#FF01E6"/>
</radialGradient>
</defs>
</svg>
